<?xml version="1.0" encoding="UTF-8" standalone="no"?>
<!-- Generator: Adobe Illustrator 15.0.0, SVG Export Plug-In . SVG Version: 6.00 Build 0)  -->

<svg
   xmlns:dc="http://purl.org/dc/elements/1.1/"
   xmlns:cc="http://creativecommons.org/ns#"
   xmlns:rdf="http://www.w3.org/1999/02/22-rdf-syntax-ns#"
   xmlns:svg="http://www.w3.org/2000/svg"
   xmlns="http://www.w3.org/2000/svg"
   xmlns:sodipodi="http://sodipodi.sourceforge.net/DTD/sodipodi-0.dtd"
   xmlns:inkscape="http://www.inkscape.org/namespaces/inkscape"
   version="1.1"
   id="Capa_1"
   x="0px"
   y="0px"
   width="64"
   height="64"
   viewBox="0 0 64.000003 63.999999"
   enable-background="new 0 0 82.895 82.122"
   xml:space="preserve"
   inkscape:version="0.48.5 r10040"
   sodipodi:docname="ic_action_remove.svg"
   inkscape:export-filename="/home/INTERNA/rromerogar/Devel/CVAPP/plugins/org.apache.cordova.inappbrowser/src/android/res/drawable-xxhdpi/ic_action_remove.png"
   inkscape:export-xdpi="135"
   inkscape:export-ydpi="135"><metadata
     id="metadata3103"><rdf:RDF><cc:Work
         rdf:about=""><dc:format>image/svg+xml</dc:format><dc:type
           rdf:resource="http://purl.org/dc/dcmitype/StillImage" /><dc:title></dc:title></cc:Work></rdf:RDF></metadata><defs
     id="defs3101" /><sodipodi:namedview
     pagecolor="#ffffff"
     bordercolor="#666666"
     borderopacity="1"
     objecttolerance="10"
     gridtolerance="10"
     guidetolerance="10"
     inkscape:pageopacity="0"
     inkscape:pageshadow="2"
     inkscape:window-width="1280"
     inkscape:window-height="958"
     id="namedview3099"
     showgrid="false"
     inkscape:zoom="2.8737731"
     inkscape:cx="-5.8770455"
     inkscape:cy="41.061001"
     inkscape:window-x="0"
     inkscape:window-y="27"
     inkscape:window-maximized="1"
     inkscape:current-layer="Capa_1" /><g
     id="g3876"
     inkscape:export-filename="/home/INTERNA/rromerogar/Devel/CVAPP/plugins/org.apache.cordova.inappbrowser/src/android/res/drawable-hdpi/ic_action_remove.png"
     inkscape:export-xdpi="67.889305"
     inkscape:export-ydpi="67.889305"
     transform="translate(-9.4474985,-9.0605005)"><rect
       y="19.907806"
       x="17.398729"
       height="42.727619"
       width="46.026691"
       id="rect3874"
       style="fill:#ffffff;fill-opacity:1;stroke-width:0.2;stroke-miterlimit:4;stroke-dasharray:none" /><path
       inkscape:export-ydpi="67.889999"
       inkscape:export-xdpi="67.889999"
       inkscape:export-filename="/home/INTERNA/rromerogar/Devel/CVAPP/plugins/org.apache.cordova.inappbrowser/src/android/res/drawable-hdpi/ic_action_remove.png"
       d="m 41.448,9.244 c -17.572,0 -31.817,14.245 -31.817,31.817 0,17.572 14.245,31.816 31.817,31.816 17.571,0 31.816,-14.244 31.816,-31.816 C 73.264,23.489 59.02,9.244 41.448,9.244 z m 15.348,42.319 -4.848,4.848 c -0.815,0.816 -2.146,0.816 -2.962,-0.002 l -7.54,-7.539 -7.536,7.539 c -0.818,0.818 -2.148,0.818 -2.965,0 L 26.1,51.563 c -0.814,-0.82 -0.814,-2.146 0,-2.963 l 7.539,-7.539 -7.541,-7.54 C 25.283,32.704 25.283,31.375 26.097,30.56 l 4.847,-4.847 c 0.818,-0.817 2.148,-0.817 2.965,0 l 7.536,7.539 7.54,-7.539 c 0.819,-0.819 2.146,-0.819 2.966,0 l 4.845,4.846 c 0.816,0.817 0.816,2.146 0,2.963 l -7.538,7.539 7.539,7.539 c 0.816,0.817 0.816,2.147 -10e-4,2.963 z"
       id="path3097"
       style="fill:#2e3a69;fill-opacity:1;stroke-width:0.2;stroke-miterlimit:4;stroke-dasharray:none"
       inkscape:connector-curvature="0" /></g></svg>